<?xml version="1.0" standalone="no"?>
<!DOCTYPE svg PUBLIC "-//W3C//DTD SVG 20010904//EN"
 "http://www.w3.org/TR/2001/REC-SVG-20010904/DTD/svg10.dtd">
<svg version="1.0" xmlns="http://www.w3.org/2000/svg"
 width="2000.000000pt" height="3742.000000pt" viewBox="0 0 2000.000000 3742.000000"
 preserveAspectRatio="xMidYMid meet">

<g transform="translate(0.000000,3742.000000) scale(0.100000,-0.100000)"
fill="#000000" stroke="none">
<path d="M8446 37404 c-800 -109 -1520 -467 -2091 -1039 -543 -543 -893 -1219
-1018 -1970 -46 -272 -49 -358 -45 -1515 l3 -1085 27 -86 c39 -123 70 -190
135 -287 140 -210 351 -359 599 -420 l103 -25 22 -91 c98 -401 310 -814 579
-1131 98 -115 299 -309 415 -401 55 -44 153 -113 217 -154 l118 -75 -3 -105
-2 -105 -564 -86 c-310 -48 -607 -97 -660 -109 -618 -143 -1176 -538 -1534
-1085 -74 -113 -169 -297 -221 -426 -24 -61 -638 -2009 -722 -2291 -5 -17 275
-18 5790 -18 l5796 0 0 205 0 205 -300 0 -300 0 0 199 0 200 463 3 462 3 81
32 c199 76 334 224 384 418 20 77 20 112 20 1974 0 2102 5 1943 -67 2091 -50
104 -159 213 -263 263 -148 72 28 67 -2247 67 -1129 0 -2053 1 -2053 3 0 2 12
37 26 78 14 41 40 133 59 204 l33 130 105 27 c398 101 694 421 757 818 8 56
10 416 7 1395 -4 1454 0 1362 -68 1635 -76 305 -214 594 -409 855 -83 112
-307 342 -416 427 -84 67 -271 191 -336 224 -35 18 -70 53 -144 145 -395 492
-904 796 -1507 899 -109 18 -160 20 -625 19 -366 -1 -535 -5 -606 -15z m1029
-384 c384 -43 731 -180 1030 -409 104 -79 273 -251 395 -402 l118 -146 117
-64 c470 -259 816 -700 954 -1220 65 -240 64 -223 68 -1151 l4 -847 -53 35
c-98 66 -204 112 -345 150 -10 3 -13 95 -13 419 l0 415 -148 0 c-211 0 -316
22 -472 100 -159 80 -269 185 -395 379 l-80 123 -350 -6 c-524 -7 -898 -51
-1396 -161 -735 -164 -1479 -469 -2121 -870 -131 -83 -431 -285 -512 -346 -37
-28 -62 -39 -105 -44 -142 -18 -305 -77 -415 -150 l-66 -45 0 570 c0 586 6
732 42 955 209 1324 1233 2393 2547 2660 119 24 307 51 406 58 120 8 708 6
790 -3z m1013 -3097 c117 -154 302 -309 470 -392 77 -39 244 -95 330 -112 l62
-12 0 -126 0 -127 -67 17 c-62 16 -131 18 -738 18 -747 1 -749 1 -884 -66 -95
-47 -202 -150 -254 -244 -40 -71 -77 -198 -77 -261 l0 -38 -403 0 -403 0 -11
83 c-31 228 -183 415 -404 495 l-74 27 -365 5 -365 5 210 106 c319 162 574
268 905 377 608 200 1246 308 1902 320 l107 2 59 -77z m-2483 -1159 c46 -25
65 -45 91 -94 17 -31 19 -60 19 -280 0 -135 -3 -257 -8 -273 -10 -37 -75 -107
-114 -124 -26 -10 -160 -13 -685 -13 -613 0 -655 2 -693 19 -48 22 -79 54
-100 103 -12 30 -15 83 -15 280 0 216 3 248 19 284 21 45 92 102 145 115 17 4
317 7 666 6 628 -2 635 -2 675 -23z m3183 15 c63 -13 125 -65 147 -122 14 -36
16 -81 13 -294 l-3 -251 -30 -44 c-18 -25 -49 -52 -75 -66 l-45 -22 -666 2
-666 3 -40 28 c-22 15 -50 46 -64 70 -23 41 -24 50 -27 273 -2 143 1 247 7
271 22 79 78 135 154 153 51 13 1238 12 1295 -1z m-5096 -801 c2 -310 3 -565
2 -566 -1 -2 -23 5 -47 16 -162 72 -291 229 -337 408 -61 236 32 485 235 629
55 40 117 73 137 75 3 0 8 -253 10 -562z m5754 527 c156 -91 263 -237 298
-407 20 -95 20 -153 1 -243 -22 -103 -76 -205 -153 -286 -60 -65 -165 -138
-219 -154 l-23 -6 0 566 0 567 28 -7 c15 -3 45 -17 68 -30z m-2516 -360 c0
-64 21 -140 66 -232 72 -151 204 -264 369 -316 70 -22 75 -22 770 -22 622 0
706 2 758 17 l57 16 0 -73 c0 -253 -66 -577 -172 -847 l-51 -128 -228 0 c-125
0 -252 -5 -281 -11 -169 -35 -340 -170 -416 -329 -22 -47 -45 -109 -51 -138
-6 -31 -11 -170 -11 -332 l0 -278 -107 -55 c-224 -114 -461 -192 -720 -239
-174 -31 -576 -33 -748 -5 -534 90 -984 318 -1354 688 -431 431 -683 1002
-708 1607 -3 78 -4 142 -2 142 2 0 27 -8 54 -17 45 -16 119 -18 705 -21 456
-2 679 0 735 8 276 40 493 264 521 536 l7 64 403 0 404 0 0 -35z m6325 -1996
c52 -15 119 -82 134 -134 8 -29 11 -479 11 -1567 l0 -1528 -2630 0 -2630 0 0
1528 c0 1059 3 1539 11 1566 14 50 73 113 124 131 34 12 404 14 2490 15 1765
0 2461 -3 2490 -11z m-7622 -1258 c562 -193 1202 -195 1770 -7 104 35 130 40
134 29 3 -8 3 -46 1 -86 -8 -112 -80 -245 -207 -379 -150 -160 -359 -263 -606
-298 -175 -25 -425 -7 -587 41 -266 79 -499 283 -602 526 -20 49 -26 79 -26
138 0 41 2 75 5 75 3 0 56 -17 118 -39z m15 -1799 c259 -777 465 -1409 459
-1405 -9 5 -1122 869 -1145 888 -2 2 92 192 207 424 l211 421 -411 205 c-259
130 -409 210 -406 218 122 308 242 604 247 610 10 11 353 66 361 58 4 -3 218
-642 477 -1419z m-1311 1281 c-2 -10 -68 -177 -146 -371 -77 -193 -141 -357
-141 -362 0 -6 177 -99 394 -207 l394 -197 -194 -387 -193 -388 734 -571 c404
-314 735 -573 735 -576 0 -2 -449 -4 -998 -4 l-998 0 86 691 c58 463 83 692
76 695 -6 2 -96 14 -199 27 -130 16 -190 20 -192 13 -2 -6 -43 -329 -91 -718
l-88 -708 -784 0 c-623 0 -783 3 -779 13 2 6 120 383 262 835 141 453 272 863
291 910 217 536 659 969 1203 1176 132 51 264 85 446 116 198 34 188 34 182
13z m3403 -1175 l0 -893 -402 -312 c-221 -172 -403 -311 -405 -310 -4 4 797
2407 803 2407 2 0 4 -402 4 -892z m-1831 648 c47 -19 128 -45 179 -57 53 -14
91 -29 90 -35 -7 -27 -203 -343 -209 -336 -10 11 -158 462 -152 462 3 0 44
-15 92 -34z m1254 -193 c-42 -126 -78 -231 -82 -235 -6 -7 -202 310 -209 337
-2 7 33 20 92 35 53 12 130 37 173 55 43 18 83 33 90 34 7 0 -20 -94 -64 -226z
m-444 -437 l192 -319 -191 -573 c-106 -316 -193 -574 -195 -574 -2 0 -90 259
-195 575 l-191 574 192 321 c106 176 193 319 195 318 1 -2 88 -146 193 -322z
m6681 -803 c0 -165 -27 -229 -113 -276 l-42 -22 -2475 0 -2475 0 -42 22 c-47
25 -84 71 -102 122 -6 19 -11 85 -11 147 l0 114 2630 0 2630 0 0 -107z m-5457
-548 c56 -49 136 -94 224 -128 56 -21 74 -21 521 -25 l462 -3 0 -200 0 -199
-1012 0 c-774 0 -1009 3 -1000 12 13 13 745 586 750 587 2 1 27 -19 55 -44z
m4037 -355 l0 -200 -1210 0 -1210 0 0 200 0 200 1210 0 1210 0 0 -200z"/>
<path d="M7916 30513 c27 -222 148 -399 334 -490 47 -23 109 -46 138 -52 34
-7 230 -11 540 -11 402 0 498 3 547 15 242 61 427 273 454 518 l7 67 -202 0
-201 0 -7 -38 c-8 -51 -55 -114 -102 -138 -37 -18 -66 -19 -504 -19 l-465 0
-38 24 c-47 29 -86 84 -93 134 l-7 37 -203 0 -204 0 6 -47z"/>
<path d="M10950 27530 l0 -200 200 0 200 0 0 200 0 200 -200 0 -200 0 0 -200z"/>
<path d="M11750 27530 l0 -200 1015 0 1015 0 0 200 0 200 -1015 0 -1015 0 0
-200z"/>
<path d="M10936 21249 c-879 -71 -1601 -130 -1603 -132 -10 -11 -135 -849
-127 -856 5 -5 394 -138 864 -296 470 -159 870 -294 888 -301 l32 -13 0 -5795
c0 -3216 -4 -5797 -9 -5800 -4 -3 -395 -98 -867 -212 -472 -114 -860 -207
-861 -208 -3 -2 -123 -864 -123 -881 0 -13 321 -15 2710 -15 1491 0 2710 1
2711 3 8 26 134 894 130 898 -3 4 -136 36 -296 73 -159 36 -560 127 -890 201
-329 75 -603 139 -607 141 -4 3 -8 2938 -8 6522 l0 6517 -143 143 c-122 122
-146 142 -172 141 -17 -1 -749 -59 -1629 -130z"/>
<path d="M4245 21129 c-515 -43 -994 -154 -1455 -336 -785 -310 -1394 -776
-1873 -1435 -393 -540 -616 -1182 -667 -1918 -55 -796 107 -1519 469 -2096
329 -523 782 -998 1284 -1347 260 -181 746 -481 1172 -724 224 -127 345 -194
875 -483 602 -328 993 -558 1351 -795 290 -192 440 -313 654 -529 368 -370
544 -653 634 -1018 41 -165 51 -260 51 -470 0 -667 -205 -1164 -666 -1608
-240 -231 -513 -402 -855 -536 -576 -225 -1205 -280 -1799 -158 -628 129
-1260 505 -1628 968 -34 42 -66 85 -71 94 -5 9 -107 492 -227 1072 -119 580
-221 1059 -225 1064 -7 7 -1151 169 -1154 163 -1 -1 -27 -571 -59 -1267 -46
-1034 -57 -1334 -56 -1641 l0 -377 58 -53 c147 -135 438 -343 648 -462 532
-302 1211 -546 1844 -662 1133 -207 2262 -123 3254 245 1000 369 1759 934
2327 1728 485 678 716 1452 696 2327 -11 470 -97 832 -286 1203 -239 466 -730
1010 -1246 1377 -384 274 -988 633 -1740 1035 -880 470 -1677 946 -2040 1217
-518 388 -967 933 -1142 1388 -121 311 -167 575 -167 950 0 743 206 1280 631
1648 301 260 643 412 1068 474 167 24 530 24 670 0 525 -92 1027 -364 1403
-762 91 -97 207 -255 217 -298 3 -12 69 -503 148 -1092 l142 -1070 550 -67
c303 -37 555 -67 561 -67 7 -1 14 37 18 102 7 108 102 1293 160 2002 19 231
44 553 55 715 12 162 23 314 25 337 l3 42 -86 69 c-447 356 -941 628 -1461
802 -358 121 -672 188 -1095 236 -166 19 -801 27 -970 13z"/>
<path d="M14697 16843 c-14 -75 -110 -823 -106 -827 2 -2 337 -105 744 -227
407 -122 744 -226 748 -229 5 -4 -651 -835 -1457 -1846 l-1466 -1839 0 -118 0
-117 577 -798 c640 -885 758 -1046 1077 -1467 945 -1246 1497 -1864 2011
-2250 731 -549 1426 -702 2418 -534 212 36 642 132 659 148 5 4 28 148 53 321
34 236 45 343 45 437 0 67 -4 123 -8 123 -41 0 -670 104 -748 124 -292 74
-530 187 -794 376 -492 353 -865 777 -1942 2205 -158 209 -348 457 -422 550
-465 585 -1087 1388 -1083 1398 3 7 607 748 1342 1647 l1337 1635 317 91 c174
50 552 157 841 239 289 81 528 151 533 155 4 3 42 192 85 418 l78 412 -2417 0
-2416 0 -6 -27z"/>
<path d="M4000 2929 c-112 -45 -138 -202 -48 -286 105 -98 288 -17 288 127 0
117 -130 203 -240 159z"/>
<path d="M14700 2929 c-63 -25 -100 -85 -100 -162 0 -95 61 -158 157 -164 47
-3 66 1 97 19 47 27 86 95 86 148 0 54 -39 121 -86 147 -42 24 -110 29 -154
12z"/>
<path d="M9935 2864 c-369 -58 -654 -275 -798 -608 -64 -149 -88 -265 -94
-462 -5 -136 -2 -193 12 -275 84 -504 436 -813 950 -836 265 -12 479 43 673
173 52 35 96 63 98 61 1 -1 15 -47 31 -102 l29 -100 52 -3 52 -3 -2 343 -3
343 -57 3 c-56 3 -58 2 -64 -25 -4 -15 -19 -60 -34 -98 -71 -179 -180 -306
-322 -373 -117 -56 -171 -67 -333 -67 -150 0 -231 17 -335 70 -194 98 -321
312 -366 616 -20 136 -14 428 11 549 73 356 250 573 525 641 79 20 269 17 350
-5 133 -37 256 -115 335 -215 49 -61 107 -172 124 -238 l12 -43 52 0 52 0 -12
287 c-6 159 -12 300 -12 316 -1 25 -4 27 -40 27 -39 0 -40 -1 -55 -52 -8 -29
-18 -65 -21 -80 -4 -16 -10 -28 -13 -28 -3 0 -64 29 -136 65 -193 96 -274 117
-471 120 -88 2 -173 1 -190 -1z"/>
<path d="M20 2791 l0 -50 58 -6 c127 -15 167 -37 198 -107 18 -41 19 -87 22
-798 3 -792 0 -864 -40 -928 -25 -41 -86 -71 -161 -78 -99 -10 -97 -8 -97 -65
l0 -50 653 4 c575 3 661 6 727 21 330 76 530 362 455 651 -25 95 -71 168 -156
249 -117 113 -251 170 -447 192 -34 4 -64 10 -67 14 -2 4 15 13 38 20 194 57
336 160 400 290 31 62 32 70 32 185 0 110 -2 125 -28 179 -69 147 -200 240
-419 298 -79 21 -107 22 -625 25 l-543 4 0 -50z m992 -92 c125 -27 208 -92
250 -198 19 -47 22 -76 22 -186 1 -78 -4 -147 -12 -172 -17 -58 -67 -121 -132
-166 -85 -59 -129 -68 -352 -74 l-198 -6 0 395 c0 293 3 397 12 406 16 16 336
16 410 1z m13 -949 c154 -22 299 -99 366 -196 67 -98 96 -233 79 -370 -30
-239 -189 -353 -491 -354 -202 0 -300 40 -354 144 l-30 60 -3 363 -3 363 183
0 c101 0 215 -5 253 -10z"/>
<path d="M2778 2199 c-273 -36 -494 -205 -592 -453 -46 -115 -58 -194 -53
-351 5 -161 19 -222 79 -345 59 -120 169 -230 288 -288 110 -54 181 -72 310
-79 134 -7 244 14 355 67 94 44 128 69 213 153 l64 62 -43 37 -42 36 -72 -63
c-126 -110 -218 -149 -350 -149 -229 1 -394 140 -465 394 -22 81 -37 272 -26
333 l7 37 487 0 c366 0 491 3 500 12 31 31 1 230 -50 338 -56 118 -173 208
-314 243 -78 20 -213 27 -296 16z m174 -139 c20 -6 58 -25 85 -43 58 -39 100
-115 109 -198 10 -87 -3 -95 -157 -104 -68 -3 -212 -5 -319 -3 l-195 3 3 29
c5 45 41 132 76 183 67 98 156 142 286 143 41 0 92 -5 112 -10z"/>
<path d="M5569 2200 c-144 -23 -283 -93 -393 -202 -39 -37 -71 -66 -72 -65 -1
1 -9 60 -18 132 -10 71 -19 132 -22 134 -2 3 -87 -14 -187 -38 -289 -68 -259
-55 -255 -104 l3 -42 74 -7 c86 -7 117 -26 140 -83 13 -34 16 -109 16 -525 0
-471 -1 -486 -20 -520 -23 -39 -78 -65 -157 -75 l-48 -6 0 -45 0 -44 365 0
365 0 0 44 0 45 -47 6 c-118 16 -144 32 -169 102 -16 47 -20 732 -3 802 28
122 131 252 239 303 109 52 255 57 339 13 74 -39 122 -122 145 -257 33 -189
30 -812 -5 -883 -22 -44 -59 -65 -137 -77 l-72 -12 0 -43 0 -43 360 0 360 0 0
45 c0 43 -1 44 -37 50 -86 14 -99 18 -121 32 -53 33 -56 52 -63 543 -7 481
-11 521 -59 623 -39 83 -131 149 -251 180 -73 20 -202 27 -270 17z"/>
<path d="M7102 2200 c-163 -22 -303 -108 -384 -233 -139 -217 -57 -538 171
-669 23 -13 41 -26 41 -29 0 -4 -17 -10 -37 -14 -131 -24 -243 -142 -243 -254
0 -78 18 -122 70 -173 66 -63 132 -83 395 -114 401 -47 438 -55 513 -119 17
-14 43 -50 58 -80 23 -48 26 -64 23 -133 -3 -65 -9 -85 -32 -120 -37 -56 -96
-98 -176 -123 -95 -30 -335 -38 -451 -15 -186 38 -270 114 -270 244 0 87 38
156 110 199 l53 32 -54 26 c-102 47 -195 30 -275 -50 -41 -41 -56 -65 -70
-110 -46 -159 30 -297 211 -386 141 -69 174 -74 485 -74 l275 0 88 29 c102 33
184 84 245 150 107 116 131 312 58 471 -33 72 -121 164 -194 203 -103 55 -206
75 -572 112 -112 12 -217 27 -236 35 -57 23 -71 79 -31 119 29 28 86 42 266
62 280 31 428 98 520 235 61 91 76 151 76 299 0 113 -3 131 -28 190 -29 71
-30 70 38 97 56 22 96 16 154 -23 68 -46 105 -56 152 -44 56 15 82 54 76 113
-8 84 -60 131 -164 147 -98 16 -191 -16 -307 -105 l-47 -35 -37 29 c-106 85
-308 133 -470 111z m196 -121 c56 -28 97 -84 125 -173 31 -101 31 -299 -1
-402 -41 -133 -113 -197 -222 -197 -160 0 -259 153 -260 400 0 147 28 246 91
318 66 74 178 97 267 54z"/>
<path d="M14000 2197 c-31 -7 -83 -26 -115 -42 -81 -40 -210 -169 -261 -260
l-39 -70 -6 40 c-4 22 -13 98 -20 168 -8 81 -17 131 -25 134 -10 3 -397 -75
-456 -93 -14 -4 -18 -16 -18 -55 l0 -49 60 0 c33 0 76 -6 95 -14 78 -33 87
-103 83 -622 -3 -388 -4 -411 -23 -443 -28 -48 -63 -70 -120 -77 -97 -11 -95
-10 -95 -59 l0 -45 371 0 370 0 -3 48 -3 47 -65 8 c-111 14 -137 44 -150 174
-21 193 -5 459 35 621 54 211 167 364 269 364 17 0 60 -14 96 -31 104 -50 223
-39 264 24 45 69 20 172 -52 212 -49 27 -123 35 -192 20z"/>
<path d="M16027 2200 c-247 -31 -477 -189 -580 -400 -66 -134 -81 -200 -81
-350 0 -143 21 -236 80 -355 90 -183 277 -336 479 -390 96 -26 256 -31 355
-11 501 101 775 634 555 1081 -78 159 -191 271 -353 350 -133 65 -305 93 -455
75z m278 -165 c124 -59 220 -189 266 -362 31 -112 31 -334 0 -448 -61 -232
-186 -365 -371 -397 -183 -31 -348 55 -438 229 -64 127 -77 191 -77 393 0 197
11 255 70 376 39 80 115 163 178 196 78 40 118 48 217 45 79 -3 105 -9 155
-32z"/>
<path d="M19426 2200 c-207 -37 -353 -237 -332 -458 12 -138 87 -232 287 -363
367 -239 391 -259 405 -336 4 -20 1 -60 -6 -90 -24 -107 -102 -158 -242 -157
-65 0 -86 5 -142 33 -98 48 -176 150 -225 294 -17 49 -20 52 -54 55 l-37 3 0
-235 0 -236 33 0 c29 0 36 6 57 42 13 24 24 44 25 46 1 1 29 -14 61 -33 82
-49 173 -76 279 -82 195 -11 355 57 437 186 l28 45 0 177 0 177 -40 53 c-53
71 -143 141 -347 271 -198 126 -244 163 -272 221 -23 47 -27 119 -10 164 52
137 283 153 388 27 34 -41 111 -187 111 -210 0 -10 13 -14 40 -14 l40 0 0 200
0 200 -29 0 c-21 0 -37 -9 -54 -31 l-24 -30 -34 19 c-85 50 -248 79 -343 62z"/>
<path d="M3940 2154 c-124 -24 -235 -46 -247 -49 -20 -5 -23 -12 -23 -54 l0
-48 85 -5 c133 -9 160 -36 176 -177 6 -51 9 -259 7 -478 -3 -384 -3 -388 -27
-436 -28 -58 -76 -85 -165 -95 l-61 -7 -3 -47 -3 -48 395 0 396 0 0 44 c0 48
-9 56 -64 56 -84 0 -147 46 -173 125 -14 44 -17 128 -21 658 l-4 607 -21 -1
c-12 0 -123 -20 -247 -45z"/>
<path d="M14620 2150 c-135 -27 -246 -49 -247 -50 -2 0 -3 -22 -3 -49 l0 -48
85 -5 c182 -12 188 -32 183 -643 -3 -386 -4 -402 -25 -447 -26 -57 -77 -86
-167 -96 l-61 -7 -3 -47 -3 -48 395 0 396 0 0 44 c0 49 -9 56 -66 56 -42 0
-101 23 -132 52 -53 50 -55 73 -60 731 l-4 607 -22 -1 c-11 0 -131 -23 -266
-49z"/>
<path d="M11154 2166 c-3 -8 -4 -29 -2 -47 3 -34 4 -34 81 -50 89 -18 118 -40
137 -102 8 -29 15 -178 20 -487 8 -478 12 -515 65 -606 94 -161 376 -239 592
-164 119 41 252 147 320 256 16 24 31 44 34 44 3 0 13 -72 21 -160 8 -88 18
-163 21 -167 6 -5 269 10 400 24 l58 6 -3 46 -3 46 -76 6 c-140 12 -148 26
-160 299 -4 107 -8 392 -9 633 l0 437 -250 0 -250 0 0 -49 0 -49 53 -7 c77
-10 133 -38 154 -77 16 -29 18 -66 21 -343 4 -359 -3 -408 -69 -543 -50 -100
-126 -186 -200 -227 -42 -22 -70 -30 -130 -33 -93 -5 -138 8 -191 56 -48 43
-73 90 -101 190 -20 73 -21 103 -25 580 l-3 502 -250 0 c-205 0 -251 -3 -255
-14z"/>
<path d="M17100 2131 l0 -49 53 -7 c78 -10 133 -38 154 -77 16 -30 18 -74 24
-468 7 -469 14 -541 62 -637 29 -56 96 -122 157 -153 62 -32 185 -60 259 -60
86 0 179 23 260 63 76 37 194 143 241 218 18 27 35 47 40 44 4 -2 13 -77 20
-165 l13 -160 36 0 c20 0 119 7 221 15 102 8 188 15 193 15 4 0 7 22 7 49 l0
48 -74 5 c-83 5 -121 24 -137 66 -20 52 -28 286 -29 790 l0 512 -250 0 -250 0
0 -49 0 -49 53 -7 c83 -11 130 -36 153 -81 18 -36 19 -63 19 -369 0 -372 -2
-382 -78 -528 -50 -97 -118 -174 -188 -212 -44 -23 -69 -30 -136 -33 -74 -4
-88 -2 -138 23 -86 42 -131 120 -161 283 -13 69 -17 186 -21 555 l-6 467 -248
0 -249 0 0 -49z"/>
</g>
</svg>
